<?xml version="1.0" standalone="no"?><!DOCTYPE svg PUBLIC "-//W3C//DTD SVG 1.1//EN" "http://www.w3.org/Graphics/SVG/1.1/DTD/svg11.dtd"><svg t="1638516170576" class="icon" viewBox="0 0 1024 1024" version="1.1" xmlns="http://www.w3.org/2000/svg" p-id="2346" xmlns:xlink="http://www.w3.org/1999/xlink" width="30" height="30"><defs><style type="text/css"></style></defs><path d="M783.53 240.47C641.08 98.02 413.8 91.41 263.09 220.03V167.1c0-17.67-14.33-32-32-32s-32 14.33-32 32v128c0 17.67 14.33 32 32 32h128c17.67 0 32-14.33 32-32s-14.33-32-32-32h-48.15c125.55-101.54 310.66-94.06 427.34 22.62 124.75 124.77 124.75 327.8 0 452.56-124.78 124.75-327.78 124.75-452.56 0C225.28 677.84 192 597.48 192 512c0-17.67-14.33-32-32-32s-32 14.33-32 32c0 102.58 39.94 199.02 112.47 271.53 74.86 74.86 173.19 112.3 271.53 112.3 98.33 0 196.67-37.44 271.53-112.3 149.7-149.72 149.7-393.34 0-543.06z" p-id="2347"></path><path d="M512 288c-17.67 0-32 14.33-32 32v185.38c0 12.81 5 24.88 14.06 33.94l123.31 123.31c6.25 6.25 14.44 9.38 22.62 9.38s16.38-3.12 22.62-9.38c12.5-12.5 12.5-32.75 0-45.25L544 498.75V320c0-17.67-14.33-32-32-32z" p-id="2348"></path></svg>