<?xml version="1.0" standalone="no"?><!DOCTYPE svg PUBLIC "-//W3C//DTD SVG 1.1//EN" "http://www.w3.org/Graphics/SVG/1.1/DTD/svg11.dtd"><svg t="1638519829279" class="icon" viewBox="0 0 1024 1024" version="1.1" xmlns="http://www.w3.org/2000/svg" p-id="2416" width="20" height="20" xmlns:xlink="http://www.w3.org/1999/xlink"><defs><style type="text/css"></style></defs><path d="M730.099 714.434l-0.874-8.238c-0.803-7.57-1.83-15.626-3.233-25.349l-0.627-4.344 3.949-1.913c22.398-10.852 43.502-24.977 62.723-41.982 41.789-36.966 74.139-86.599 93.553-143.532 31.813-93.225 26.582-196.913-14.677-292.377-12.707-0.921-25.217-1.388-37.237-1.388-113.388 0-196.853 40.661-248.075 120.853-5.827 9.165-11.377 19.055-16.49 29.384l-3.611 7.297-5.9-5.611c-6.556-6.234-12.658-11.809-18.657-17.042l-3.553-3.099 2.171-4.185c25.108-48.408 59.357-86.775 101.797-114.035 52.021-33.414 116.813-50.356 192.575-50.356 14.02 0 28.634 0.584 43.437 1.735 11.453 0.883 21.063 7.699 25.704 18.233 45.99 104.253 52.283 218.129 17.719 320.647-32.712 97.024-99.463 174.26-183.137 211.904l-7.557 3.398z m8.382-30.991a737.7 737.7 0 0 1 1.727 13.15c77.135-37.445 138.547-110.349 169.211-201.297 33.604-99.671 27.45-210.466-17.328-311.973-2.871-6.516-8.574-10.564-15.649-11.109-14.499-1.128-28.801-1.7-42.511-1.7-132.139 0-226.831 51.726-281.535 153.773a581.102 581.102 0 0 1 9.621 8.748c4.258-8.124 8.771-15.942 13.463-23.322 24.245-37.957 55.879-67.832 94.03-88.805 45.382-24.948 100.615-37.598 164.165-37.598 13.462 0 27.513 0.571 41.763 1.696l3.569 0.282 1.446 3.275c43.79 99.132 49.647 207.231 16.493 304.386-20.085 58.901-53.613 110.302-96.959 148.645-18.912 16.734-39.585 30.799-61.506 41.849z" fill="" p-id="2417"></path><path d="M666.217 477.769C746.5 385.57 868.141 227.154 905.326 76.481c1.627-6.624 8.352-10.596 14.871-8.965 6.623 1.628 10.596 8.353 9.066 14.874-39.423 159.434-169.421 326.205-251.021 419.013-3.871-8.046-7.844-15.891-12.025-23.634z" fill="" p-id="2418"></path><path d="M701.681 962.85c-1.481 0-2.979-0.11-4.45-0.327-241.594-35.003-412.137-125.377-506.876-268.61-124.438-188.134-79.409-409.898-62.645-473.384 3.308-12.47 13.261-21.15 25.978-22.66a496.884 496.884 0 0 1 58.999-3.523c73.358 0 147.743 16.636 215.113 48.109 69.625 32.526 130.319 79.25 180.397 138.874 56.315 67.05 95.99 146.752 117.92 236.892 23.82 97.909 25.776 205.279 5.813 319.128-2.615 14.779-15.335 25.501-30.249 25.501zM212.686 206.345a484.909 484.909 0 0 0-57.576 3.438c-7.849 0.932-13.753 6.096-15.8 13.815-16.441 62.261-60.633 279.721 61.053 463.694 92.771 140.258 260.525 228.863 498.603 263.357 0.908 0.134 1.817 0.2 2.715 0.2 9.082 0 16.834-6.554 18.431-15.583 37.607-214.476-5.4-408.464-121.104-546.221-97.522-116.108-238.33-182.7-386.322-182.7zM706.6 938.797l-6.6-0.827c-45.359-6.548-88.912-15.3-129.449-26.014-104.619-27.626-192.142-69.2-260.135-123.567-58.381-46.682-103.213-103.42-133.25-168.64-54.285-117.739-51.447-241.054-39.506-323.769 4.425-30.672 9.94-54.471 13.786-69.034l1.041-3.939 4.045-0.486a474.836 474.836 0 0 1 56.461-3.381 474.26 474.26 0 0 1 82.219 7.201c51.447 9.024 101.053 26.266 147.434 51.244 47.271 25.458 90.096 58.384 127.286 97.861 80.111 85.023 130.579 197.273 145.947 324.614 8.727 73.449 5.936 151.875-8.293 233.109l-0.986 5.628zM162.022 233.966c-3.679 14.442-8.522 36.259-12.485 63.729-11.709 81.112-14.529 201.956 38.527 317.033 63.953 138.86 193.671 234.958 385.552 285.627 38.614 10.205 80.018 18.614 123.135 25.012 13.168-78.038 15.595-153.327 7.213-223.88-15.057-124.766-64.425-234.667-142.767-317.812-71.679-76.089-166.88-127.767-268.065-145.516a462.242 462.242 0 0 0-80.14-7.019c-16.961 0-34.087 0.95-50.97 2.826z" fill="" p-id="2419"></path><path d="M88.177 119.371c-2.65-6.287 0.299-13.535 6.586-16.184 0.013-0.004 0.024-0.01 0.035-0.014 6.29-2.651 13.535 0.299 16.183 6.585 0.004 0.013 0.01 0.023 0.015 0.035 0.408 1.021 143.034 346.277 436.231 598.014 5.195 4.381 5.809 12.226 1.328 17.317-4.381 5.192-12.227 5.805-17.318 1.324C233.349 470.842 88.583 120.286 88.177 119.371z" fill="" p-id="2420"></path></svg>